<mxfile host="app.diagrams.net" modified="2021-09-24T05:42:57.905Z" agent="5.0 (Windows NT 10.0; Win64; x64) AppleWebKit/537.36 (KHTML, like Gecko) Chrome/93.0.4577.82 Safari/537.36 Edg/93.0.961.52" etag="6q7U9BmZpDV4TROD8ypi" version="15.2.9" type="github">
  <diagram id="RS4CFRJiYfsApMhA05gF" name="Page-1">
    <mxGraphModel dx="1049" dy="734" grid="1" gridSize="10" guides="1" tooltips="1" connect="1" arrows="1" fold="1" page="1" pageScale="1" pageWidth="827" pageHeight="1169" math="0" shadow="0">
      <root>
        <mxCell id="0" />
        <mxCell id="1" parent="0" />
        <mxCell id="9gHXCcAP-avGtQiPlDmq-18" value="" style="edgeStyle=elbowEdgeStyle;rounded=0;orthogonalLoop=1;jettySize=auto;html=1;entryX=0;entryY=0.5;entryDx=0;entryDy=0;exitX=1;exitY=0.5;exitDx=0;exitDy=0;" edge="1" parent="1" source="Gs-ypRks-wbQAlIACF4s-1" target="9gHXCcAP-avGtQiPlDmq-3">
          <mxGeometry relative="1" as="geometry">
            <Array as="points">
              <mxPoint x="500" y="80" />
            </Array>
          </mxGeometry>
        </mxCell>
        <mxCell id="9gHXCcAP-avGtQiPlDmq-19" style="edgeStyle=elbowEdgeStyle;rounded=0;orthogonalLoop=1;jettySize=auto;html=1;exitX=1;exitY=0.5;exitDx=0;exitDy=0;entryX=0;entryY=0.5;entryDx=0;entryDy=0;" edge="1" parent="1" source="Gs-ypRks-wbQAlIACF4s-1" target="9gHXCcAP-avGtQiPlDmq-7">
          <mxGeometry relative="1" as="geometry">
            <mxPoint x="500" y="140" as="sourcePoint" />
            <Array as="points">
              <mxPoint x="500" y="160" />
              <mxPoint x="490" y="150" />
            </Array>
          </mxGeometry>
        </mxCell>
        <mxCell id="9gHXCcAP-avGtQiPlDmq-22" value="" style="edgeStyle=elbowEdgeStyle;rounded=0;orthogonalLoop=1;jettySize=auto;html=1;" edge="1" parent="1" source="Gs-ypRks-wbQAlIACF4s-1" target="9gHXCcAP-avGtQiPlDmq-15">
          <mxGeometry relative="1" as="geometry" />
        </mxCell>
        <mxCell id="Gs-ypRks-wbQAlIACF4s-1" value="&lt;font style=&quot;font-size: 13px&quot;&gt;引言&lt;/font&gt;" style="rounded=1;whiteSpace=wrap;html=1;" parent="1" vertex="1">
          <mxGeometry x="340" y="80" width="120" height="60" as="geometry" />
        </mxCell>
        <mxCell id="9gHXCcAP-avGtQiPlDmq-3" value="研究背景与意义" style="whiteSpace=wrap;html=1;rounded=1;" vertex="1" parent="1">
          <mxGeometry x="530" y="10" width="130" height="50" as="geometry" />
        </mxCell>
        <mxCell id="9gHXCcAP-avGtQiPlDmq-20" value="" style="edgeStyle=elbowEdgeStyle;rounded=0;orthogonalLoop=1;jettySize=auto;html=1;exitX=1;exitY=0.5;exitDx=0;exitDy=0;entryX=0;entryY=0.5;entryDx=0;entryDy=0;" edge="1" parent="1" source="Gs-ypRks-wbQAlIACF4s-1" target="9gHXCcAP-avGtQiPlDmq-6">
          <mxGeometry relative="1" as="geometry">
            <mxPoint x="470" y="240" as="targetPoint" />
          </mxGeometry>
        </mxCell>
        <mxCell id="9gHXCcAP-avGtQiPlDmq-6" value="研究目标" style="whiteSpace=wrap;html=1;rounded=1;" vertex="1" parent="1">
          <mxGeometry x="530" y="85" width="130" height="50" as="geometry" />
        </mxCell>
        <mxCell id="9gHXCcAP-avGtQiPlDmq-7" value="研究内容" style="whiteSpace=wrap;html=1;rounded=1;" vertex="1" parent="1">
          <mxGeometry x="530" y="160" width="130" height="50" as="geometry" />
        </mxCell>
        <mxCell id="9gHXCcAP-avGtQiPlDmq-27" value="" style="edgeStyle=elbowEdgeStyle;rounded=0;orthogonalLoop=1;jettySize=auto;html=1;entryX=1;entryY=0.5;entryDx=0;entryDy=0;" edge="1" parent="1" source="9gHXCcAP-avGtQiPlDmq-15" target="9gHXCcAP-avGtQiPlDmq-24">
          <mxGeometry relative="1" as="geometry" />
        </mxCell>
        <mxCell id="9gHXCcAP-avGtQiPlDmq-31" value="" style="edgeStyle=none;rounded=0;orthogonalLoop=1;jettySize=auto;html=1;" edge="1" parent="1" source="9gHXCcAP-avGtQiPlDmq-15" target="9gHXCcAP-avGtQiPlDmq-30">
          <mxGeometry relative="1" as="geometry" />
        </mxCell>
        <mxCell id="9gHXCcAP-avGtQiPlDmq-40" value="" style="edgeStyle=orthogonalEdgeStyle;rounded=0;orthogonalLoop=1;jettySize=auto;html=1;" edge="1" parent="1" source="9gHXCcAP-avGtQiPlDmq-15" target="9gHXCcAP-avGtQiPlDmq-39">
          <mxGeometry relative="1" as="geometry" />
        </mxCell>
        <mxCell id="9gHXCcAP-avGtQiPlDmq-15" value="理论基础与文献综述" style="rounded=1;whiteSpace=wrap;html=1;" vertex="1" parent="1">
          <mxGeometry x="340" y="240" width="120" height="60" as="geometry" />
        </mxCell>
        <mxCell id="9gHXCcAP-avGtQiPlDmq-24" value="CAPM模型" style="whiteSpace=wrap;html=1;rounded=1;" vertex="1" parent="1">
          <mxGeometry x="130" y="210" width="130" height="50" as="geometry" />
        </mxCell>
        <mxCell id="9gHXCcAP-avGtQiPlDmq-25" value="多因子模型" style="whiteSpace=wrap;html=1;rounded=1;" vertex="1" parent="1">
          <mxGeometry x="130" y="280" width="130" height="50" as="geometry" />
        </mxCell>
        <mxCell id="9gHXCcAP-avGtQiPlDmq-28" value="" style="edgeStyle=elbowEdgeStyle;rounded=0;orthogonalLoop=1;jettySize=auto;html=1;entryX=1;entryY=0.5;entryDx=0;entryDy=0;exitX=0;exitY=0.5;exitDx=0;exitDy=0;" edge="1" parent="1" source="9gHXCcAP-avGtQiPlDmq-15" target="9gHXCcAP-avGtQiPlDmq-25">
          <mxGeometry relative="1" as="geometry">
            <mxPoint x="350" y="270" as="sourcePoint" />
            <mxPoint x="270" y="245" as="targetPoint" />
          </mxGeometry>
        </mxCell>
        <mxCell id="9gHXCcAP-avGtQiPlDmq-37" value="" style="edgeStyle=orthogonalEdgeStyle;rounded=0;orthogonalLoop=1;jettySize=auto;html=1;" edge="1" parent="1" source="9gHXCcAP-avGtQiPlDmq-30" target="9gHXCcAP-avGtQiPlDmq-33">
          <mxGeometry relative="1" as="geometry">
            <Array as="points">
              <mxPoint x="670" y="270" />
              <mxPoint x="670" y="315" />
            </Array>
          </mxGeometry>
        </mxCell>
        <mxCell id="9gHXCcAP-avGtQiPlDmq-30" value="国内外研究" style="whiteSpace=wrap;html=1;rounded=1;" vertex="1" parent="1">
          <mxGeometry x="530" y="245" width="130" height="50" as="geometry" />
        </mxCell>
        <mxCell id="9gHXCcAP-avGtQiPlDmq-32" value="日内数据" style="whiteSpace=wrap;html=1;rounded=1;" vertex="1" parent="1">
          <mxGeometry x="690" y="195" width="130" height="50" as="geometry" />
        </mxCell>
        <mxCell id="9gHXCcAP-avGtQiPlDmq-33" value="量价因子" style="whiteSpace=wrap;html=1;rounded=1;" vertex="1" parent="1">
          <mxGeometry x="690" y="290" width="130" height="50" as="geometry" />
        </mxCell>
        <mxCell id="9gHXCcAP-avGtQiPlDmq-38" value="" style="edgeStyle=orthogonalEdgeStyle;rounded=0;orthogonalLoop=1;jettySize=auto;html=1;entryX=0;entryY=0.5;entryDx=0;entryDy=0;" edge="1" parent="1" target="9gHXCcAP-avGtQiPlDmq-32">
          <mxGeometry relative="1" as="geometry">
            <mxPoint x="670" y="280" as="sourcePoint" />
            <mxPoint x="690" y="235" as="targetPoint" />
            <Array as="points">
              <mxPoint x="670" y="220" />
            </Array>
          </mxGeometry>
        </mxCell>
        <mxCell id="9gHXCcAP-avGtQiPlDmq-50" value="" style="edgeStyle=orthogonalEdgeStyle;rounded=0;orthogonalLoop=1;jettySize=auto;html=1;" edge="1" parent="1" source="9gHXCcAP-avGtQiPlDmq-39" target="9gHXCcAP-avGtQiPlDmq-49">
          <mxGeometry relative="1" as="geometry" />
        </mxCell>
        <mxCell id="9gHXCcAP-avGtQiPlDmq-39" value="因子构建" style="rounded=1;whiteSpace=wrap;html=1;" vertex="1" parent="1">
          <mxGeometry x="340" y="430" width="120" height="60" as="geometry" />
        </mxCell>
        <mxCell id="9gHXCcAP-avGtQiPlDmq-47" value="" style="edgeStyle=orthogonalEdgeStyle;rounded=0;orthogonalLoop=1;jettySize=auto;html=1;" edge="1" parent="1" source="9gHXCcAP-avGtQiPlDmq-41" target="9gHXCcAP-avGtQiPlDmq-42">
          <mxGeometry relative="1" as="geometry" />
        </mxCell>
        <mxCell id="9gHXCcAP-avGtQiPlDmq-41" value="数据获取" style="rounded=1;whiteSpace=wrap;html=1;" vertex="1" parent="1">
          <mxGeometry x="530" y="340" width="120" height="60" as="geometry" />
        </mxCell>
        <mxCell id="9gHXCcAP-avGtQiPlDmq-45" value="" style="edgeStyle=orthogonalEdgeStyle;rounded=0;orthogonalLoop=1;jettySize=auto;html=1;" edge="1" parent="1" source="9gHXCcAP-avGtQiPlDmq-42" target="9gHXCcAP-avGtQiPlDmq-43">
          <mxGeometry relative="1" as="geometry">
            <Array as="points">
              <mxPoint x="590" y="490" />
              <mxPoint x="590" y="490" />
            </Array>
          </mxGeometry>
        </mxCell>
        <mxCell id="9gHXCcAP-avGtQiPlDmq-42" value="数据加工" style="rounded=1;whiteSpace=wrap;html=1;" vertex="1" parent="1">
          <mxGeometry x="530" y="430" width="120" height="60" as="geometry" />
        </mxCell>
        <mxCell id="9gHXCcAP-avGtQiPlDmq-43" value="构建因子" style="rounded=1;whiteSpace=wrap;html=1;" vertex="1" parent="1">
          <mxGeometry x="530" y="520" width="120" height="60" as="geometry" />
        </mxCell>
        <mxCell id="9gHXCcAP-avGtQiPlDmq-48" value="" style="strokeWidth=2;html=1;shape=mxgraph.flowchart.annotation_2;align=left;labelPosition=right;pointerEvents=1;" vertex="1" parent="1">
          <mxGeometry x="460" y="365" width="70" height="190" as="geometry" />
        </mxCell>
        <mxCell id="9gHXCcAP-avGtQiPlDmq-56" value="" style="edgeStyle=orthogonalEdgeStyle;rounded=0;orthogonalLoop=1;jettySize=auto;html=1;" edge="1" parent="1" source="9gHXCcAP-avGtQiPlDmq-49" target="9gHXCcAP-avGtQiPlDmq-53">
          <mxGeometry relative="1" as="geometry" />
        </mxCell>
        <mxCell id="9gHXCcAP-avGtQiPlDmq-57" value="" style="edgeStyle=orthogonalEdgeStyle;rounded=0;orthogonalLoop=1;jettySize=auto;html=1;" edge="1" parent="1" source="9gHXCcAP-avGtQiPlDmq-49" target="9gHXCcAP-avGtQiPlDmq-55">
          <mxGeometry relative="1" as="geometry" />
        </mxCell>
        <mxCell id="9gHXCcAP-avGtQiPlDmq-49" value="因子回测" style="rounded=1;whiteSpace=wrap;html=1;" vertex="1" parent="1">
          <mxGeometry x="340" y="630" width="120" height="60" as="geometry" />
        </mxCell>
        <mxCell id="9gHXCcAP-avGtQiPlDmq-53" value="ICIR法&lt;span style=&quot;color: rgba(0 , 0 , 0 , 0) ; font-family: monospace ; font-size: 0px&quot;&gt;%3CmxGraphModel%3E%3Croot%3E%3CmxCell%20id%3D%220%22%2F%3E%3CmxCell%20id%3D%221%22%20parent%3D%220%22%2F%3E%3CmxCell%20id%3D%222%22%20value%3D%22%E6%95%B0%E6%8D%AE%E8%8E%B7%E5%8F%96%22%20style%3D%22rounded%3D1%3BwhiteSpace%3Dwrap%3Bhtml%3D1%3B%22%20vertex%3D%221%22%20parent%3D%221%22%3E%3CmxGeometry%20x%3D%22530%22%20y%3D%22340%22%20width%3D%22120%22%20height%3D%2260%22%20as%3D%22geometry%22%2F%3E%3C%2FmxCell%3E%3C%2Froot%3E%3C%2FmxGraphModel%3E&lt;/span&gt;" style="rounded=1;whiteSpace=wrap;html=1;" vertex="1" parent="1">
          <mxGeometry x="135" y="630" width="120" height="60" as="geometry" />
        </mxCell>
        <mxCell id="9gHXCcAP-avGtQiPlDmq-55" value="分组法" style="rounded=1;whiteSpace=wrap;html=1;" vertex="1" parent="1">
          <mxGeometry x="550" y="630" width="120" height="60" as="geometry" />
        </mxCell>
        <mxCell id="9gHXCcAP-avGtQiPlDmq-69" value="" style="edgeStyle=orthogonalEdgeStyle;rounded=0;orthogonalLoop=1;jettySize=auto;html=1;" edge="1" parent="1" source="9gHXCcAP-avGtQiPlDmq-58" target="9gHXCcAP-avGtQiPlDmq-67">
          <mxGeometry relative="1" as="geometry" />
        </mxCell>
        <mxCell id="9gHXCcAP-avGtQiPlDmq-58" value="指标评价" style="rounded=1;whiteSpace=wrap;html=1;" vertex="1" parent="1">
          <mxGeometry x="340" y="720" width="120" height="60" as="geometry" />
        </mxCell>
        <mxCell id="9gHXCcAP-avGtQiPlDmq-60" style="edgeStyle=elbowEdgeStyle;rounded=0;orthogonalLoop=1;jettySize=auto;html=1;exitX=0.5;exitY=1;exitDx=0;exitDy=0;entryX=0;entryY=0.5;entryDx=0;entryDy=0;" edge="1" parent="1" source="9gHXCcAP-avGtQiPlDmq-53" target="9gHXCcAP-avGtQiPlDmq-58">
          <mxGeometry relative="1" as="geometry">
            <mxPoint x="200.00000000000023" y="690" as="sourcePoint" />
            <mxPoint x="269.9999999999998" y="765" as="targetPoint" />
            <Array as="points">
              <mxPoint x="195" y="760" />
              <mxPoint x="190" y="730" />
              <mxPoint x="230" y="730" />
            </Array>
          </mxGeometry>
        </mxCell>
        <mxCell id="9gHXCcAP-avGtQiPlDmq-62" style="edgeStyle=elbowEdgeStyle;rounded=0;orthogonalLoop=1;jettySize=auto;html=1;exitX=0.5;exitY=1;exitDx=0;exitDy=0;entryX=1;entryY=0.5;entryDx=0;entryDy=0;" edge="1" parent="1" source="9gHXCcAP-avGtQiPlDmq-55" target="9gHXCcAP-avGtQiPlDmq-58">
          <mxGeometry relative="1" as="geometry">
            <mxPoint x="205" y="700" as="sourcePoint" />
            <mxPoint x="470" y="760" as="targetPoint" />
            <Array as="points">
              <mxPoint x="620" y="730" />
              <mxPoint x="200" y="740" />
              <mxPoint x="240" y="740" />
            </Array>
          </mxGeometry>
        </mxCell>
        <mxCell id="9gHXCcAP-avGtQiPlDmq-68" value="" style="edgeStyle=orthogonalEdgeStyle;rounded=0;orthogonalLoop=1;jettySize=auto;html=1;" edge="1" parent="1" source="9gHXCcAP-avGtQiPlDmq-63" target="9gHXCcAP-avGtQiPlDmq-67">
          <mxGeometry relative="1" as="geometry" />
        </mxCell>
        <mxCell id="9gHXCcAP-avGtQiPlDmq-63" value="" style="strokeWidth=2;html=1;shape=mxgraph.flowchart.annotation_2;align=left;labelPosition=right;pointerEvents=1;direction=south;" vertex="1" parent="1">
          <mxGeometry x="225" y="780" width="350" height="40" as="geometry" />
        </mxCell>
        <mxCell id="9gHXCcAP-avGtQiPlDmq-64" value="收益类指标" style="rounded=1;whiteSpace=wrap;html=1;" vertex="1" parent="1">
          <mxGeometry x="170" y="820" width="120" height="50" as="geometry" />
        </mxCell>
        <mxCell id="9gHXCcAP-avGtQiPlDmq-65" value="风险类指标" style="rounded=1;whiteSpace=wrap;html=1;" vertex="1" parent="1">
          <mxGeometry x="510" y="820" width="130" height="50" as="geometry" />
        </mxCell>
        <mxCell id="9gHXCcAP-avGtQiPlDmq-66" style="edgeStyle=orthogonalEdgeStyle;rounded=0;orthogonalLoop=1;jettySize=auto;html=1;exitX=0.75;exitY=1;exitDx=0;exitDy=0;entryX=0.751;entryY=0.833;entryDx=0;entryDy=0;entryPerimeter=0;" edge="1" parent="1" source="9gHXCcAP-avGtQiPlDmq-64" target="9gHXCcAP-avGtQiPlDmq-64">
          <mxGeometry relative="1" as="geometry" />
        </mxCell>
        <mxCell id="9gHXCcAP-avGtQiPlDmq-71" value="" style="edgeStyle=orthogonalEdgeStyle;rounded=0;orthogonalLoop=1;jettySize=auto;html=1;" edge="1" parent="1" source="9gHXCcAP-avGtQiPlDmq-67" target="9gHXCcAP-avGtQiPlDmq-70">
          <mxGeometry relative="1" as="geometry" />
        </mxCell>
        <mxCell id="9gHXCcAP-avGtQiPlDmq-67" value="综合评价" style="rounded=1;whiteSpace=wrap;html=1;" vertex="1" parent="1">
          <mxGeometry x="340" y="870" width="120" height="60" as="geometry" />
        </mxCell>
        <mxCell id="9gHXCcAP-avGtQiPlDmq-70" value="结论与展望" style="rounded=1;whiteSpace=wrap;html=1;" vertex="1" parent="1">
          <mxGeometry x="340" y="970" width="120" height="60" as="geometry" />
        </mxCell>
      </root>
    </mxGraphModel>
  </diagram>
</mxfile>
